<!-- TEIZA header lockup: official export from the "Gateway Makeover x TEIZA" Figma (node 55:1159). -->
<svg width="93" height="45" viewBox="0 0 93 45" fill="none" xmlns="http://www.w3.org/2000/svg">
<path d="M3.00528 19.6395C2.28521 19.6487 2.03004 18.6889 2.65941 18.3385L18.8793 9.30825C19.4971 8.96428 20.1726 9.65807 19.8135 10.2677L11.8454 23.7198C13.0638 22.2288 13.876 22.2992 13.9408 22.2992H17.3493C17.9312 22.2992 18.2543 22.9734 17.8903 23.4278L7.98398 35.7964C7.57416 36.3081 6.7496 36.0179 6.7496 35.362V20.2947C6.7496 19.9078 6.4337 19.5955 6.04729 19.6004L3.00528 19.6395Z" fill="#1D4AE1"/>
<path d="M86.1147 16.1299C86.3073 16.1299 86.4757 16.1847 86.6201 16.2943C86.7645 16.4039 86.8668 16.5501 86.927 16.7328L90.2522 27.3129C90.4738 28.0179 89.9473 28.7353 89.2083 28.7353C88.7226 28.7353 88.295 28.4152 88.1583 27.9491L85.5371 19.0163C85.489 18.8215 85.4409 18.6266 85.3928 18.4317C85.366 18.3235 85.3412 18.2172 85.3181 18.1127C85.2865 17.9693 85.1606 17.8654 85.0137 17.8654C84.8669 17.8654 84.7409 17.9693 84.7093 18.1127C84.6863 18.2172 84.6614 18.3235 84.6347 18.4317C84.5865 18.6266 84.5324 18.8215 84.4722 19.0163L81.8681 27.9478C81.732 28.4145 81.3043 28.7353 80.8182 28.7353C80.0796 28.7353 79.5535 28.0184 79.7749 27.3138L83.1005 16.7328C83.1486 16.5501 83.2449 16.4039 83.3893 16.2943C83.5457 16.1847 83.7202 16.1299 83.9127 16.1299H86.1147ZM87.3133 22.2617C87.8077 22.2617 88.2085 22.6625 88.2085 23.1569C88.2085 23.6512 87.8077 24.052 87.3133 24.052H82.6961C82.2017 24.052 81.8009 23.6512 81.8009 23.1569C81.8009 22.6625 82.2017 22.2617 82.6961 22.2617H87.3133Z" fill="#1D4AE1"/>
<path d="M70.6813 19.9229C71.5677 18.6468 73.0268 17.8905 74.5805 17.9019L68.2919 26.9815L65.791 26.9632L70.6813 19.9229ZM73.8395 26.9632C74.3288 26.9632 74.7255 27.3599 74.7255 27.8493C74.7255 28.3386 74.3288 28.7353 73.8395 28.7353H65.791V26.9632H73.8395ZM74.5805 16.1299V17.9019H66.8039C66.3146 17.9019 65.9179 17.5053 65.9179 17.0159C65.9179 16.5266 66.3146 16.1299 66.8039 16.1299H74.5805Z" fill="#1D4AE1"/>
<path d="M58.6839 16.1299C59.3193 16.1299 59.8345 16.645 59.8345 17.2805V27.5846C59.8345 28.2201 59.3193 28.7353 58.6839 28.7353C58.0484 28.7353 57.5332 28.2201 57.5332 27.5846V17.2805C57.5332 16.645 58.0484 16.1299 58.6839 16.1299Z" fill="#1D4AE1"/>
<path d="M45.8908 16.1299C46.5186 16.1299 47.1584 16.1299 47.8103 16.1299C48.4743 16.1299 49.1262 16.142 49.7661 16.1662C50.1115 16.1793 50.4463 16.1959 50.7706 16.216C51.227 16.2443 51.577 16.6265 51.577 17.0838C51.577 17.5701 51.1827 17.9644 50.6964 17.9644H46.5789C46.2409 17.9644 45.9874 18.0492 45.8184 18.2187C45.6614 18.3882 45.5829 18.6546 45.5829 19.0179V25.8473C45.5829 26.2106 45.6614 26.477 45.8184 26.6465C45.9874 26.816 46.2409 26.9008 46.5789 26.9008H50.6964C51.1827 26.9008 51.577 27.295 51.577 27.7814C51.577 28.2387 51.227 28.6208 50.7706 28.6492C50.4463 28.6693 50.1115 28.6859 49.7661 28.699C49.1262 28.7111 48.4743 28.7171 47.8103 28.7171C47.1584 28.7293 46.5186 28.7353 45.8908 28.7353C45.1181 28.7353 44.4964 28.5234 44.0256 28.0996C43.5668 27.6637 43.3314 27.0824 43.3193 26.3559V18.5093C43.3314 17.7828 43.5668 17.2076 44.0256 16.7838C44.4964 16.3478 45.1181 16.1299 45.8908 16.1299ZM43.6453 23.0908C43.6453 22.6293 44.0194 22.2553 44.4808 22.2553H49.9447C50.4061 22.2553 50.7802 22.6293 50.7802 23.0908C50.7802 23.5522 50.4061 23.9263 49.9447 23.9263H44.4808C44.0194 23.9263 43.6453 23.5522 43.6453 23.0908Z" fill="#1D4AE1"/>
<path d="M32.8955 16.1299C33.5207 16.1299 34.0276 16.6368 34.0276 17.2621V27.6031C34.0276 28.2284 33.5207 28.7353 32.8955 28.7353C32.2702 28.7353 31.7633 28.2284 31.7633 27.6031V17.2621C31.7633 16.6368 32.2702 16.1299 32.8955 16.1299ZM36.9725 16.1299C37.487 16.1299 37.9042 16.547 37.9042 17.0616C37.9042 17.5762 37.487 17.9933 36.9725 17.9933H28.8184C28.3039 17.9933 27.8867 17.5762 27.8867 17.0616C27.8867 16.547 28.3039 16.1299 28.8184 16.1299H36.9725Z" fill="#1D4AE1"/>
</svg>
